REM DIRINDEX 1\2,1\3,1\4
REM DIRNAME folder01,folder02,folder03,folder04
TITLE ""
FILE "Disk2Track37.mp3" MP3
  TRACK 01 AUDIO
    TITLE "4:cjc032_0892"
    INDEX 01 00:00:00
  TRACK 02 AUDIO
    TITLE "4:cjc032_0893"
    INDEX 01 00:05:16
  TRACK 03 AUDIO
    TITLE "4:cjc032_0894"
    INDEX 01 00:20:39
  TRACK 04 AUDIO
    TITLE "4:cjc032_0895"
    INDEX 01 00:42:41
  TRACK 05 AUDIO
    TITLE "0:"
    INDEX 01 01:03:04
